<!-- Generated by IcoMoon.io -->
<svg version="1.1" xmlns="http://www.w3.org/2000/svg" width="32" height="32" viewBox="0 0 32 32">
<title>progress</title>
<path d="M10.322 28.416c0 0.811-0.664 1.475-1.475 1.475h-6.095c-0.811 0-1.475-0.664-1.475-1.475v-6.685c0-0.811 0.664-1.475 1.475-1.475h6.095c0.811 0 1.475 0.664 1.475 1.475v6.685z"></path>
<path d="M21.161 28.416c0 0.811-0.664 1.475-1.475 1.475h-6.095c-0.811 0-1.475-0.664-1.475-1.475v-10.224c0-0.811 0.664-1.475 1.475-1.475h6.095c0.811 0 1.475 0.664 1.475 1.475v10.224z"></path>
<path d="M32 28.416c0 0.811-0.664 1.475-1.475 1.475h-6.095c-0.811 0-1.475-0.664-1.475-1.475v-14.157c0-0.811 0.664-1.475 1.475-1.475h6.095c0.811 0 1.475 0.664 1.475 1.475v14.157z"></path>
<path d="M30.724 2.136l-6.624 1.611c-0.526 0.127-0.643 0.544-0.26 0.926l1.413 1.38c0.119 0.135-0.022 0.315-0.134 0.391-0.89 0.608-2.302 1.499-4.255 2.518-10.629 5.545-19.391 5.205-19.522 5.199-0.703-0.036-1.305 0.506-1.341 1.211s0.506 1.306 1.21 1.342c0.052 0.003 0.262 0.012 0.617 0.012 2.272 0 10.432-0.392 20.219-5.498 2.316-1.208 3.921-2.25 4.858-2.91 0.133-0.093 0.363-0.254 0.577-0.037l1.546 1.546c0.382 0.382 0.797 0.265 0.922-0.261l1.503-6.706c0.125-0.526-0.203-0.852-0.729-0.725z"></path>
</svg>
