<!-- Generated by IcoMoon.io -->
<svg version="1.1" xmlns="http://www.w3.org/2000/svg" width="32" height="32" viewBox="0 0 32 32">
<title>speak</title>
<path d="M25.645 18.239l-3.083-6.66c-0.036-2.685-1.256-5.231-3.442-7.18-2.167-1.917-4.956-2.984-7.849-3.001-4.738 0-9.228 2.894-10.69 6.886-1.058 2.213-0.442 6.501 0.052 9.949 0.127 0.883 0.247 1.717 0.326 2.434l0.052 9.259c0.002 0.3 0.247 0.542 0.547 0.541l13.857 0.168c0.149 0.004 0.294-0.050 0.404-0.15 0.109-0.099 0.174-0.237 0.18-0.384v-3.756l3.376 0.104c0.811 0.024 1.597-0.28 2.181-0.843s0.917-1.337 0.923-2.148l0.042-4.37 2.634-0.062c0.186-0.005 0.358-0.103 0.457-0.261s0.111-0.356 0.032-0.525zM21.959 17.992c-0.299 0.007-0.538 0.25-0.541 0.548l-0.049 4.906c-0.005 0.515-0.217 1.006-0.589 1.363s-0.871 0.548-1.385 0.533l-7.893-0.243c-0.305-0.009-0.561 0.231-0.571 0.537-0.002 0.309 0.243 0.563 0.552 0.571l3.409 0.104v3.229l-12.76-0.164-0.057-8.745c-0.001-0.019-0.004-0.038-0.007-0.058-0.082-0.742-0.206-1.595-0.336-2.499-0.476-3.311-1.069-7.433-0.142-9.332 0.008-0.018 0.016-0.036 0.022-0.054 0.624-1.721 1.94-3.293 3.707-4.424 1.778-1.136 3.842-1.746 5.952-1.758 2.622 0.016 5.149 0.982 7.112 2.72 1.982 1.767 3.073 4.066 3.073 6.477 0 0.080 0.018 0.16 0.051 0.233l2.778 6.002z"></path>
<path d="M25.708 20.331c-0.217 0.216-0.218 0.567-0.002 0.783 1.365 1.376 1.365 3.595 0 4.971-0.141 0.14-0.196 0.345-0.145 0.536s0.202 0.342 0.394 0.392c0.192 0.051 0.396-0.005 0.536-0.147 1.794-1.808 1.794-4.726 0-6.534-0.216-0.217-0.567-0.217-0.783-0.002z"></path>
<path d="M29.088 18.456c-0.216 0.216-0.216 0.567 0 0.783 2.408 2.408 2.407 6.359-0.003 8.807-0.143 0.14-0.198 0.346-0.146 0.54s0.204 0.343 0.398 0.392c0.194 0.049 0.399-0.010 0.537-0.154 2.835-2.88 2.834-7.53-0.003-10.367-0.216-0.216-0.567-0.216-0.783 0z"></path>
</svg>
