<svg enable-background="new 0 0 1000 1000" version="1.1" viewBox="0 0 1e3 1e3" xmlns="http://www.w3.org/2000/svg">
 <path d="m-24.286 391.43 385.71-27.143 138.57-315.71 140 311.43 464.29 41.429-32.857-442.86-1131.4 1.4286z" fill="#fff"/>
 <path d="m-60 322.86 345.71 298.57-62.857 310 274.29-154.29 287.14 157.14-67.143-321.43 347.14-302.86-21.429 787.14-1105.7 5.7142z" fill="#fff"/>
 <g>
  <path d="m988.7 387.7c-3.3-10.2-12.4-17.5-23.1-18.7l-313.6-31.8-127.2-288.3c-4.3-9.8-14.1-16.2-24.8-16.2-10.8 0-20.5 6.3-24.8 16.2l-127.2 288.3-313.6 31.8c-10.7 1.1-19.8 8.5-23.1 18.7s-0.3 21.5 7.7 28.6l235 210.2-66.6 308c-2.3 10.5 1.9 21.4 10.6 27.7 4.8 3.4 10.4 5.2 16 5.2 4.7 0 9.4-1.2 13.7-3.7l272.3-158.6 272.3 158.6c9.3 5.4 20.9 4.8 29.6-1.6 8.7-6.2 12.9-17.2 10.6-27.7l-66.6-308 234.9-210.1c8.1-7.1 11.2-18.4 7.9-28.6zm-290.7 208.8c-7.3 6.5-10.5 16.4-8.4 26l56.9 263.3-232.8-135.6c-8.4-4.9-18.9-4.9-27.3 0l-232.9 135.5 56.9-263.3c2.1-9.5-1.2-19.5-8.4-26l-200.9-179.5 268-27.2c9.7-0.9 18.1-7.2 22.1-16.1l108.8-246.4 108.7 246.5c4 8.9 12.4 15.1 22.1 16.1l268 27.2z" fill="#882273"/>
 </g>
</svg>
